<mxfile host="app.diagrams.net" agent="Mozilla/5.0 (Macintosh; Intel Mac OS X 10_15_7) AppleWebKit/537.36 (KHTML, like Gecko) Chrome/133.0.0.0 Safari/537.36" version="26.0.15" pages="2">
  <diagram name="start" id="_S_wmvwTDGGlnSbLx8z6">
    <mxGraphModel dx="1242" dy="785" grid="1" gridSize="10" guides="1" tooltips="1" connect="1" arrows="1" fold="1" page="1" pageScale="1" pageWidth="850" pageHeight="1100" math="0" shadow="0">
      <root>
        <mxCell id="0" />
        <mxCell id="1" parent="0" />
        <mxCell id="rsazNyPe4RBGBUIsCbIC-1" value="&lt;font style=&quot;font-size: 50px;&quot; face=&quot;Source Code Pro&quot;&gt;FU&lt;/font&gt;" style="rounded=0;whiteSpace=wrap;html=1;strokeWidth=2;" vertex="1" parent="1">
          <mxGeometry x="160" y="280" width="80" height="80" as="geometry" />
        </mxCell>
        <mxCell id="rsazNyPe4RBGBUIsCbIC-2" value="&lt;font style=&quot;font-size: 50px;&quot; face=&quot;Source Code Pro&quot;&gt;DIU&lt;/font&gt;" style="rounded=0;whiteSpace=wrap;html=1;strokeWidth=2;" vertex="1" parent="1">
          <mxGeometry x="320" y="280" width="120" height="80" as="geometry" />
        </mxCell>
        <mxCell id="rsazNyPe4RBGBUIsCbIC-3" value="&lt;font style=&quot;font-size: 50px;&quot; face=&quot;Source Code Pro&quot;&gt;XU&lt;/font&gt;" style="rounded=0;whiteSpace=wrap;html=1;strokeWidth=2;" vertex="1" parent="1">
          <mxGeometry x="520" y="160" width="80" height="80" as="geometry" />
        </mxCell>
        <mxCell id="rsazNyPe4RBGBUIsCbIC-4" value="&lt;span style=&quot;font-family: &amp;quot;Source Code Pro&amp;quot;; font-size: 50px;&quot;&gt;XU&lt;/span&gt;" style="rounded=0;whiteSpace=wrap;html=1;strokeWidth=2;" vertex="1" parent="1">
          <mxGeometry x="520" y="400" width="80" height="80" as="geometry" />
        </mxCell>
        <mxCell id="rsazNyPe4RBGBUIsCbIC-5" value="&lt;font style=&quot;font-size: 48px;&quot; face=&quot;Source Code Pro&quot;&gt;WCU&lt;/font&gt;" style="rounded=0;whiteSpace=wrap;html=1;strokeWidth=2;" vertex="1" parent="1">
          <mxGeometry x="680" y="280" width="120" height="80" as="geometry" />
        </mxCell>
        <mxCell id="rsazNyPe4RBGBUIsCbIC-6" value="" style="shape=flexArrow;endArrow=block;html=1;rounded=0;strokeWidth=2;width=5.6375838926174495;endSize=4.14496644295302;endWidth=8.773478672131887;strokeColor=#000000;fillColor=#2094F3;exitX=1;exitY=0.75;exitDx=0;exitDy=0;entryX=0;entryY=0.75;entryDx=0;entryDy=0;startArrow=block;startSize=4.14496644295302;startWidth=8.773478672131887;" edge="1" parent="1">
          <mxGeometry width="50" height="50" relative="1" as="geometry">
            <mxPoint x="240" y="320" as="sourcePoint" />
            <mxPoint x="320" y="320" as="targetPoint" />
          </mxGeometry>
        </mxCell>
        <mxCell id="rsazNyPe4RBGBUIsCbIC-7" value="" style="shape=flexArrow;endArrow=classic;html=1;rounded=0;strokeWidth=2;width=5.369127516778524;endSize=4.413422818791947;endWidth=9.749110400432413;strokeColor=#000000;fillColor=#97D077;entryX=0.75;entryY=0;entryDx=0;entryDy=0;exitX=0.25;exitY=0;exitDx=0;exitDy=0;" edge="1" parent="1" source="rsazNyPe4RBGBUIsCbIC-5" target="rsazNyPe4RBGBUIsCbIC-2">
          <mxGeometry width="50" height="50" relative="1" as="geometry">
            <mxPoint x="690" y="310" as="sourcePoint" />
            <mxPoint x="610" y="310" as="targetPoint" />
            <Array as="points">
              <mxPoint x="710" y="140" />
              <mxPoint x="410" y="140" />
            </Array>
          </mxGeometry>
        </mxCell>
        <mxCell id="rsazNyPe4RBGBUIsCbIC-8" value="&lt;p style=&quot;line-height: 150%;&quot;&gt;&lt;font size=&quot;1&quot; face=&quot;Source Code Pro&quot;&gt;&lt;b style=&quot;font-size: 16px;&quot;&gt;F__D&lt;/b&gt;&lt;/font&gt;&lt;/p&gt;" style="text;html=1;align=center;verticalAlign=middle;whiteSpace=wrap;rounded=0;" vertex="1" parent="1">
          <mxGeometry x="240" y="330" width="80" height="30" as="geometry" />
        </mxCell>
        <mxCell id="rsazNyPe4RBGBUIsCbIC-9" value="&lt;p style=&quot;line-height: 150%;&quot;&gt;&lt;font size=&quot;1&quot; face=&quot;Source Code Pro&quot;&gt;&lt;b style=&quot;font-size: 16px;&quot;&gt;D__X&lt;/b&gt;&lt;/font&gt;&lt;/p&gt;" style="text;html=1;align=center;verticalAlign=middle;whiteSpace=wrap;rounded=0;" vertex="1" parent="1">
          <mxGeometry x="400" y="370" width="80" height="30" as="geometry" />
        </mxCell>
        <mxCell id="rsazNyPe4RBGBUIsCbIC-10" value="&lt;p style=&quot;line-height: 150%;&quot;&gt;&lt;font size=&quot;1&quot; face=&quot;Source Code Pro&quot;&gt;&lt;b style=&quot;font-size: 16px;&quot;&gt;X__W&lt;/b&gt;&lt;/font&gt;&lt;/p&gt;" style="text;html=1;align=center;verticalAlign=middle;whiteSpace=wrap;rounded=0;" vertex="1" parent="1">
          <mxGeometry x="640" y="370" width="80" height="30" as="geometry" />
        </mxCell>
        <mxCell id="rsazNyPe4RBGBUIsCbIC-11" value="&lt;p style=&quot;line-height: 150%;&quot;&gt;&lt;font face=&quot;Source Code Pro&quot; size=&quot;1&quot;&gt;&lt;b style=&quot;font-size: 16px;&quot;&gt;Writeback&lt;/b&gt;&lt;/font&gt;&lt;/p&gt;" style="text;html=1;align=center;verticalAlign=middle;whiteSpace=wrap;rounded=0;" vertex="1" parent="1">
          <mxGeometry x="425" y="145" width="80" height="30" as="geometry" />
        </mxCell>
        <mxCell id="rsazNyPe4RBGBUIsCbIC-12" value="" style="shape=flexArrow;endArrow=classic;startArrow=classic;html=1;rounded=0;entryX=0.5;entryY=1;entryDx=0;entryDy=0;width=5.466666666666667;endSize=3.8666666666666667;endWidth=10.337777777777777;startWidth=10.337777777777777;startSize=3.8666666666666667;strokeColor=#000000;fillColor=#FF6666;strokeWidth=2;" edge="1" parent="1" target="rsazNyPe4RBGBUIsCbIC-1">
          <mxGeometry width="100" height="100" relative="1" as="geometry">
            <mxPoint x="200" y="520" as="sourcePoint" />
            <mxPoint x="290" y="420" as="targetPoint" />
          </mxGeometry>
        </mxCell>
        <mxCell id="rsazNyPe4RBGBUIsCbIC-13" value="" style="shape=flexArrow;endArrow=classic;startArrow=classic;html=1;rounded=0;entryX=0.5;entryY=1;entryDx=0;entryDy=0;width=5.466666666666667;endSize=3.8666666666666667;endWidth=10.337777777777777;startWidth=10.337777777777777;startSize=3.8666666666666667;strokeColor=#000000;fillColor=#FF6666;strokeWidth=2;" edge="1" parent="1">
          <mxGeometry width="100" height="100" relative="1" as="geometry">
            <mxPoint x="560" y="520" as="sourcePoint" />
            <mxPoint x="559.6600000000001" y="480" as="targetPoint" />
          </mxGeometry>
        </mxCell>
        <mxCell id="rsazNyPe4RBGBUIsCbIC-14" value="&lt;font face=&quot;Source Code Pro&quot;&gt;&lt;b&gt;Memory Read&lt;/b&gt;&lt;/font&gt;" style="text;html=1;align=center;verticalAlign=middle;whiteSpace=wrap;rounded=0;" vertex="1" parent="1">
          <mxGeometry x="170" y="520" width="60" height="40" as="geometry" />
        </mxCell>
        <mxCell id="rsazNyPe4RBGBUIsCbIC-15" value="&lt;font face=&quot;Source Code Pro&quot;&gt;&lt;b&gt;Memory Read/Write&lt;/b&gt;&lt;/font&gt;" style="text;html=1;align=center;verticalAlign=middle;whiteSpace=wrap;rounded=0;" vertex="1" parent="1">
          <mxGeometry x="530" y="520" width="60" height="40" as="geometry" />
        </mxCell>
        <mxCell id="rsazNyPe4RBGBUIsCbIC-16" value="" style="shape=flexArrow;endArrow=block;html=1;rounded=0;strokeWidth=2;width=5.6375838926174495;endSize=4.14496644295302;endWidth=8.773478672131887;strokeColor=#000000;fillColor=#2094F3;exitX=1;exitY=0.75;exitDx=0;exitDy=0;entryX=0;entryY=0.75;entryDx=0;entryDy=0;startArrow=block;startSize=4.14496644295302;startWidth=8.773478672131887;" edge="1" parent="1">
          <mxGeometry width="50" height="50" relative="1" as="geometry">
            <mxPoint x="440" y="319.66" as="sourcePoint" />
            <mxPoint x="520" y="319.66" as="targetPoint" />
          </mxGeometry>
        </mxCell>
        <mxCell id="rsazNyPe4RBGBUIsCbIC-17" value="" style="shape=flexArrow;endArrow=block;html=1;rounded=0;strokeWidth=2;width=5.6375838926174495;endSize=4.14496644295302;endWidth=8.773478672131887;strokeColor=#000000;fillColor=#2094F3;exitX=1;exitY=0.75;exitDx=0;exitDy=0;entryX=0;entryY=0.5;entryDx=0;entryDy=0;startArrow=block;startSize=4.14496644295302;startWidth=8.773478672131887;" edge="1" parent="1" source="rsazNyPe4RBGBUIsCbIC-2" target="rsazNyPe4RBGBUIsCbIC-4">
          <mxGeometry width="50" height="50" relative="1" as="geometry">
            <mxPoint x="440" y="344.66" as="sourcePoint" />
            <mxPoint x="520" y="344.66" as="targetPoint" />
            <Array as="points">
              <mxPoint x="480" y="340" />
              <mxPoint x="480" y="440" />
            </Array>
          </mxGeometry>
        </mxCell>
        <mxCell id="rsazNyPe4RBGBUIsCbIC-18" value="" style="shape=flexArrow;endArrow=block;html=1;rounded=0;strokeWidth=2;width=5.6375838926174495;endSize=4.14496644295302;endWidth=8.773478672131887;strokeColor=#000000;fillColor=#2094F3;exitX=1;exitY=0.25;exitDx=0;exitDy=0;entryX=0;entryY=0.5;entryDx=0;entryDy=0;startArrow=block;startSize=4.14496644295302;startWidth=8.773478672131887;" edge="1" parent="1" source="rsazNyPe4RBGBUIsCbIC-2" target="rsazNyPe4RBGBUIsCbIC-3">
          <mxGeometry width="50" height="50" relative="1" as="geometry">
            <mxPoint x="440" y="290" as="sourcePoint" />
            <mxPoint x="520" y="290" as="targetPoint" />
            <Array as="points">
              <mxPoint x="480" y="300" />
              <mxPoint x="480" y="200" />
            </Array>
          </mxGeometry>
        </mxCell>
        <mxCell id="rsazNyPe4RBGBUIsCbIC-19" value="" style="shape=flexArrow;endArrow=block;html=1;rounded=0;strokeWidth=2;width=5.6375838926174495;endSize=4.14496644295302;endWidth=8.773478672131887;strokeColor=#000000;fillColor=#2094F3;exitX=1;exitY=0.75;exitDx=0;exitDy=0;entryX=0;entryY=0.75;entryDx=0;entryDy=0;startArrow=block;startSize=4.14496644295302;startWidth=8.773478672131887;" edge="1" parent="1">
          <mxGeometry width="50" height="50" relative="1" as="geometry">
            <mxPoint x="600" y="319.64000000000004" as="sourcePoint" />
            <mxPoint x="680" y="319.64000000000004" as="targetPoint" />
          </mxGeometry>
        </mxCell>
        <mxCell id="rsazNyPe4RBGBUIsCbIC-20" value="" style="shape=flexArrow;endArrow=block;html=1;rounded=0;strokeWidth=2;width=5.6375838926174495;endSize=4.14496644295302;endWidth=8.773478672131887;strokeColor=#000000;fillColor=#2094F3;exitX=1;exitY=0.5;exitDx=0;exitDy=0;entryX=0;entryY=0.25;entryDx=0;entryDy=0;startArrow=block;startSize=4.14496644295302;startWidth=8.773478672131887;" edge="1" parent="1" source="rsazNyPe4RBGBUIsCbIC-3" target="rsazNyPe4RBGBUIsCbIC-5">
          <mxGeometry width="50" height="50" relative="1" as="geometry">
            <mxPoint x="610" y="329.64000000000004" as="sourcePoint" />
            <mxPoint x="690" y="329.64000000000004" as="targetPoint" />
            <Array as="points">
              <mxPoint x="640" y="200" />
              <mxPoint x="640" y="300" />
            </Array>
          </mxGeometry>
        </mxCell>
        <mxCell id="rsazNyPe4RBGBUIsCbIC-21" value="" style="shape=flexArrow;endArrow=block;html=1;rounded=0;strokeWidth=2;width=5.6375838926174495;endSize=4.14496644295302;endWidth=8.773478672131887;strokeColor=#000000;fillColor=#2094F3;exitX=1;exitY=0.5;exitDx=0;exitDy=0;entryX=0;entryY=0.75;entryDx=0;entryDy=0;startArrow=block;startSize=4.14496644295302;startWidth=8.773478672131887;" edge="1" parent="1" source="rsazNyPe4RBGBUIsCbIC-4" target="rsazNyPe4RBGBUIsCbIC-5">
          <mxGeometry width="50" height="50" relative="1" as="geometry">
            <mxPoint x="620" y="339.64000000000004" as="sourcePoint" />
            <mxPoint x="700" y="339.64000000000004" as="targetPoint" />
            <Array as="points">
              <mxPoint x="640" y="440" />
              <mxPoint x="640" y="340" />
            </Array>
          </mxGeometry>
        </mxCell>
        <mxCell id="rsazNyPe4RBGBUIsCbIC-22" value="" style="shape=flexArrow;endArrow=classic;html=1;rounded=0;strokeWidth=2;width=5.369127516778524;endSize=4.413422818791947;endWidth=9.749110400432413;strokeColor=#000000;fillColor=#97D077;entryX=0.5;entryY=0;entryDx=0;entryDy=0;exitX=0.5;exitY=0;exitDx=0;exitDy=0;" edge="1" parent="1" source="rsazNyPe4RBGBUIsCbIC-5" target="rsazNyPe4RBGBUIsCbIC-2">
          <mxGeometry width="50" height="50" relative="1" as="geometry">
            <mxPoint x="670" y="260" as="sourcePoint" />
            <mxPoint x="370" y="260" as="targetPoint" />
            <Array as="points">
              <mxPoint x="740" y="110" />
              <mxPoint x="380" y="110" />
            </Array>
          </mxGeometry>
        </mxCell>
        <mxCell id="rsazNyPe4RBGBUIsCbIC-23" value="&lt;p style=&quot;line-height: 150%;&quot;&gt;&lt;font face=&quot;Source Code Pro&quot; size=&quot;1&quot;&gt;&lt;b style=&quot;font-size: 16px;&quot;&gt;Commit&lt;/b&gt;&lt;/font&gt;&lt;/p&gt;" style="text;html=1;align=center;verticalAlign=middle;whiteSpace=wrap;rounded=0;" vertex="1" parent="1">
          <mxGeometry x="380" y="80" width="80" height="30" as="geometry" />
        </mxCell>
        <mxCell id="rsazNyPe4RBGBUIsCbIC-24" value="" style="shape=flexArrow;endArrow=classic;html=1;rounded=0;strokeWidth=2;width=5.369127516778524;endSize=4.413422818791947;endWidth=9.749110400432413;strokeColor=#000000;fillColor=#97D077;entryX=1;entryY=0.75;entryDx=0;entryDy=0;exitX=0.5;exitY=1;exitDx=0;exitDy=0;" edge="1" parent="1" source="rsazNyPe4RBGBUIsCbIC-5" target="rsazNyPe4RBGBUIsCbIC-4">
          <mxGeometry width="50" height="50" relative="1" as="geometry">
            <mxPoint x="750" y="290" as="sourcePoint" />
            <mxPoint x="390" y="290" as="targetPoint" />
            <Array as="points">
              <mxPoint x="740" y="460" />
            </Array>
          </mxGeometry>
        </mxCell>
        <mxCell id="rsazNyPe4RBGBUIsCbIC-25" value="&lt;p style=&quot;line-height: 150%;&quot;&gt;&lt;font face=&quot;Source Code Pro&quot; size=&quot;1&quot;&gt;&lt;b style=&quot;font-size: 16px;&quot;&gt;Commit&lt;/b&gt;&lt;/font&gt;&lt;/p&gt;" style="text;html=1;align=center;verticalAlign=middle;whiteSpace=wrap;rounded=0;" vertex="1" parent="1">
          <mxGeometry x="660" y="430" width="80" height="30" as="geometry" />
        </mxCell>
        <mxCell id="rsazNyPe4RBGBUIsCbIC-26" value="&lt;font style=&quot;font-size: 50px;&quot; face=&quot;Source Code Pro&quot;&gt;XU&lt;/font&gt;" style="rounded=0;whiteSpace=wrap;html=1;strokeWidth=2;" vertex="1" parent="1">
          <mxGeometry x="520" y="280" width="80" height="80" as="geometry" />
        </mxCell>
      </root>
    </mxGraphModel>
  </diagram>
  <diagram id="3OwYj5xES4W6XYolZeBp" name="v1">
    <mxGraphModel dx="1242" dy="785" grid="1" gridSize="10" guides="1" tooltips="1" connect="1" arrows="1" fold="1" page="1" pageScale="1" pageWidth="850" pageHeight="1100" math="0" shadow="0">
      <root>
        <mxCell id="0" />
        <mxCell id="1" parent="0" />
        <mxCell id="o6Tn6It0cRX7kO6FVL8--1" value="&lt;font style=&quot;font-size: 50px;&quot; face=&quot;Source Code Pro&quot;&gt;FU&lt;/font&gt;" style="rounded=0;whiteSpace=wrap;html=1;strokeWidth=2;" parent="1" vertex="1">
          <mxGeometry x="160" y="280" width="80" height="80" as="geometry" />
        </mxCell>
        <mxCell id="o6Tn6It0cRX7kO6FVL8--2" value="&lt;font style=&quot;font-size: 50px;&quot; face=&quot;Source Code Pro&quot;&gt;DIU&lt;/font&gt;" style="rounded=0;whiteSpace=wrap;html=1;strokeWidth=2;" parent="1" vertex="1">
          <mxGeometry x="320" y="280" width="120" height="80" as="geometry" />
        </mxCell>
        <mxCell id="o6Tn6It0cRX7kO6FVL8--3" value="&lt;font style=&quot;font-size: 30px;&quot; face=&quot;Source Code Pro&quot;&gt;ALU&lt;/font&gt;&lt;div&gt;&lt;font style=&quot;font-size: 30px;&quot; face=&quot;Source Code Pro&quot;&gt;XU&lt;/font&gt;&lt;/div&gt;" style="rounded=0;whiteSpace=wrap;html=1;strokeWidth=2;fontSize=10;" parent="1" vertex="1">
          <mxGeometry x="520" y="220" width="80" height="80" as="geometry" />
        </mxCell>
        <mxCell id="o6Tn6It0cRX7kO6FVL8--4" value="&lt;span style=&quot;font-family: &amp;quot;Source Code Pro&amp;quot;;&quot;&gt;&lt;font style=&quot;font-size: 30px;&quot;&gt;MUL&lt;/font&gt;&lt;/span&gt;&lt;div&gt;&lt;span style=&quot;font-family: &amp;quot;Source Code Pro&amp;quot;;&quot;&gt;&lt;font style=&quot;font-size: 30px;&quot;&gt;XU&lt;/font&gt;&lt;/span&gt;&lt;/div&gt;" style="rounded=0;whiteSpace=wrap;html=1;strokeWidth=2;" parent="1" vertex="1">
          <mxGeometry x="520" y="340" width="80" height="80" as="geometry" />
        </mxCell>
        <mxCell id="o6Tn6It0cRX7kO6FVL8--5" value="&lt;font style=&quot;font-size: 48px;&quot; face=&quot;Source Code Pro&quot;&gt;WCU&lt;/font&gt;" style="rounded=0;whiteSpace=wrap;html=1;strokeWidth=2;" parent="1" vertex="1">
          <mxGeometry x="680" y="280" width="120" height="80" as="geometry" />
        </mxCell>
        <mxCell id="o6Tn6It0cRX7kO6FVL8--6" value="" style="shape=flexArrow;endArrow=block;html=1;rounded=0;strokeWidth=2;width=5.6375838926174495;endSize=4.14496644295302;endWidth=8.773478672131887;strokeColor=#000000;fillColor=#2094F3;exitX=1;exitY=0.75;exitDx=0;exitDy=0;entryX=0;entryY=0.75;entryDx=0;entryDy=0;startArrow=none;startSize=4.14496644295302;startWidth=8.773478672131887;startFill=0;" parent="1" edge="1">
          <mxGeometry width="50" height="50" relative="1" as="geometry">
            <mxPoint x="240" y="320" as="sourcePoint" />
            <mxPoint x="320" y="320" as="targetPoint" />
          </mxGeometry>
        </mxCell>
        <mxCell id="o6Tn6It0cRX7kO6FVL8--7" value="" style="shape=flexArrow;endArrow=classic;html=1;rounded=0;strokeWidth=2;width=5.369127516778524;endSize=4.413422818791947;endWidth=9.749110400432413;strokeColor=#000000;fillColor=#97D077;entryX=0.75;entryY=0;entryDx=0;entryDy=0;exitX=0.25;exitY=0;exitDx=0;exitDy=0;" parent="1" source="o6Tn6It0cRX7kO6FVL8--5" target="o6Tn6It0cRX7kO6FVL8--2" edge="1">
          <mxGeometry width="50" height="50" relative="1" as="geometry">
            <mxPoint x="690" y="310" as="sourcePoint" />
            <mxPoint x="610" y="310" as="targetPoint" />
            <Array as="points">
              <mxPoint x="710" y="200" />
              <mxPoint x="410" y="200" />
            </Array>
          </mxGeometry>
        </mxCell>
        <mxCell id="o6Tn6It0cRX7kO6FVL8--8" value="&lt;p style=&quot;line-height: 150%;&quot;&gt;&lt;font size=&quot;1&quot; face=&quot;Source Code Pro&quot;&gt;&lt;b style=&quot;font-size: 16px;&quot;&gt;F__D&lt;/b&gt;&lt;/font&gt;&lt;/p&gt;" style="text;html=1;align=center;verticalAlign=middle;whiteSpace=wrap;rounded=0;" parent="1" vertex="1">
          <mxGeometry x="240" y="330" width="80" height="30" as="geometry" />
        </mxCell>
        <mxCell id="o6Tn6It0cRX7kO6FVL8--9" value="&lt;p style=&quot;line-height: 150%;&quot;&gt;&lt;font size=&quot;1&quot; face=&quot;Source Code Pro&quot;&gt;&lt;b style=&quot;font-size: 16px;&quot;&gt;D__X&lt;/b&gt;&lt;/font&gt;&lt;/p&gt;" style="text;html=1;align=center;verticalAlign=middle;whiteSpace=wrap;rounded=0;" parent="1" vertex="1">
          <mxGeometry x="400" y="370" width="80" height="30" as="geometry" />
        </mxCell>
        <mxCell id="o6Tn6It0cRX7kO6FVL8--10" value="&lt;p style=&quot;line-height: 150%;&quot;&gt;&lt;font size=&quot;1&quot; face=&quot;Source Code Pro&quot;&gt;&lt;b style=&quot;font-size: 16px;&quot;&gt;X__W&lt;/b&gt;&lt;/font&gt;&lt;/p&gt;" style="text;html=1;align=center;verticalAlign=middle;whiteSpace=wrap;rounded=0;" parent="1" vertex="1">
          <mxGeometry x="640" y="370" width="80" height="30" as="geometry" />
        </mxCell>
        <mxCell id="o6Tn6It0cRX7kO6FVL8--11" value="&lt;p style=&quot;line-height: 150%;&quot;&gt;&lt;font face=&quot;Source Code Pro&quot; size=&quot;1&quot;&gt;&lt;b style=&quot;font-size: 16px;&quot;&gt;Complete&lt;/b&gt;&lt;/font&gt;&lt;/p&gt;" style="text;html=1;align=center;verticalAlign=middle;whiteSpace=wrap;rounded=0;" parent="1" vertex="1">
          <mxGeometry x="320" y="210" width="80" height="30" as="geometry" />
        </mxCell>
        <mxCell id="o6Tn6It0cRX7kO6FVL8--12" value="" style="shape=flexArrow;endArrow=classic;startArrow=classic;html=1;rounded=0;entryX=0.5;entryY=1;entryDx=0;entryDy=0;width=5.466666666666667;endSize=3.8666666666666667;endWidth=10.337777777777777;startWidth=10.337777777777777;startSize=3.8666666666666667;strokeColor=#000000;fillColor=#FF6666;strokeWidth=2;" parent="1" target="o6Tn6It0cRX7kO6FVL8--1" edge="1">
          <mxGeometry width="100" height="100" relative="1" as="geometry">
            <mxPoint x="200" y="420" as="sourcePoint" />
            <mxPoint x="290" y="420" as="targetPoint" />
          </mxGeometry>
        </mxCell>
        <mxCell id="o6Tn6It0cRX7kO6FVL8--14" value="&lt;font face=&quot;Source Code Pro&quot;&gt;&lt;b&gt;Memory Read&lt;/b&gt;&lt;/font&gt;" style="text;html=1;align=center;verticalAlign=middle;whiteSpace=wrap;rounded=0;" parent="1" vertex="1">
          <mxGeometry x="170" y="420" width="60" height="40" as="geometry" />
        </mxCell>
        <mxCell id="o6Tn6It0cRX7kO6FVL8--17" value="" style="shape=flexArrow;endArrow=block;html=1;rounded=0;strokeWidth=2;width=5.6375838926174495;endSize=4.14496644295302;endWidth=8.773478672131887;strokeColor=#000000;fillColor=#2094F3;exitX=1;exitY=0.75;exitDx=0;exitDy=0;entryX=0;entryY=0.5;entryDx=0;entryDy=0;startArrow=none;startSize=4.14496644295302;startWidth=8.773478672131887;startFill=0;" parent="1" source="o6Tn6It0cRX7kO6FVL8--2" target="o6Tn6It0cRX7kO6FVL8--4" edge="1">
          <mxGeometry width="50" height="50" relative="1" as="geometry">
            <mxPoint x="440" y="344.66" as="sourcePoint" />
            <mxPoint x="520" y="344.66" as="targetPoint" />
            <Array as="points">
              <mxPoint x="480" y="340" />
              <mxPoint x="480" y="380" />
            </Array>
          </mxGeometry>
        </mxCell>
        <mxCell id="o6Tn6It0cRX7kO6FVL8--18" value="" style="shape=flexArrow;endArrow=block;html=1;rounded=0;strokeWidth=2;width=5.6375838926174495;endSize=4.14496644295302;endWidth=8.773478672131887;strokeColor=#000000;fillColor=#2094F3;exitX=1;exitY=0.25;exitDx=0;exitDy=0;entryX=0;entryY=0.5;entryDx=0;entryDy=0;startArrow=none;startSize=4.14496644295302;startWidth=8.773478672131887;startFill=0;" parent="1" source="o6Tn6It0cRX7kO6FVL8--2" target="o6Tn6It0cRX7kO6FVL8--3" edge="1">
          <mxGeometry width="50" height="50" relative="1" as="geometry">
            <mxPoint x="440" y="290" as="sourcePoint" />
            <mxPoint x="520" y="290" as="targetPoint" />
            <Array as="points">
              <mxPoint x="480" y="300" />
              <mxPoint x="480" y="260" />
            </Array>
          </mxGeometry>
        </mxCell>
        <mxCell id="o6Tn6It0cRX7kO6FVL8--20" value="" style="shape=flexArrow;endArrow=block;html=1;rounded=0;strokeWidth=2;width=5.6375838926174495;endSize=4.14496644295302;endWidth=8.773478672131887;strokeColor=#000000;fillColor=#2094F3;exitX=1;exitY=0.5;exitDx=0;exitDy=0;entryX=0;entryY=0.25;entryDx=0;entryDy=0;startArrow=none;startSize=4.14496644295302;startWidth=8.773478672131887;startFill=0;" parent="1" source="o6Tn6It0cRX7kO6FVL8--3" target="o6Tn6It0cRX7kO6FVL8--5" edge="1">
          <mxGeometry width="50" height="50" relative="1" as="geometry">
            <mxPoint x="610" y="329.64000000000004" as="sourcePoint" />
            <mxPoint x="690" y="329.64000000000004" as="targetPoint" />
            <Array as="points">
              <mxPoint x="640" y="260" />
              <mxPoint x="640" y="300" />
            </Array>
          </mxGeometry>
        </mxCell>
        <mxCell id="o6Tn6It0cRX7kO6FVL8--21" value="" style="shape=flexArrow;endArrow=block;html=1;rounded=0;strokeWidth=2;width=5.6375838926174495;endSize=4.14496644295302;endWidth=8.773478672131887;strokeColor=#000000;fillColor=#2094F3;exitX=1;exitY=0.5;exitDx=0;exitDy=0;entryX=0;entryY=0.75;entryDx=0;entryDy=0;startArrow=none;startSize=4.14496644295302;startWidth=8.773478672131887;startFill=0;" parent="1" source="o6Tn6It0cRX7kO6FVL8--4" target="o6Tn6It0cRX7kO6FVL8--5" edge="1">
          <mxGeometry width="50" height="50" relative="1" as="geometry">
            <mxPoint x="620" y="339.64000000000004" as="sourcePoint" />
            <mxPoint x="700" y="339.64000000000004" as="targetPoint" />
            <Array as="points">
              <mxPoint x="640" y="380" />
              <mxPoint x="640" y="340" />
            </Array>
          </mxGeometry>
        </mxCell>
        <mxCell id="o6Tn6It0cRX7kO6FVL8--22" value="" style="shape=flexArrow;endArrow=classic;html=1;rounded=0;strokeWidth=2;width=5.369127516778524;endSize=4.413422818791947;endWidth=9.749110400432413;strokeColor=#000000;fillColor=#97D077;exitX=0.5;exitY=0;exitDx=0;exitDy=0;" parent="1" source="o6Tn6It0cRX7kO6FVL8--5" edge="1">
          <mxGeometry width="50" height="50" relative="1" as="geometry">
            <mxPoint x="670" y="260" as="sourcePoint" />
            <mxPoint x="740" y="190" as="targetPoint" />
            <Array as="points" />
          </mxGeometry>
        </mxCell>
        <mxCell id="o6Tn6It0cRX7kO6FVL8--23" value="&lt;p style=&quot;line-height: 150%;&quot;&gt;&lt;font face=&quot;Source Code Pro&quot; size=&quot;1&quot;&gt;&lt;b style=&quot;font-size: 16px;&quot;&gt;Commit&lt;/b&gt;&lt;/font&gt;&lt;/p&gt;" style="text;html=1;align=center;verticalAlign=middle;whiteSpace=wrap;rounded=0;" parent="1" vertex="1">
          <mxGeometry x="740" y="240" width="80" height="30" as="geometry" />
        </mxCell>
      </root>
    </mxGraphModel>
  </diagram>
</mxfile>
